# xmcd CD database file
#
# Track frame offsets:
#	150
#	12610
#	25690
#	38877
#	52100
#	65845
#	77035
#	87282
#	103282
#	113847
#	127482
#	135180
#	146177
#	157480
#	172600
#	183167
#	198417
#	211707
#	223300
#	242902
#	257030
#	276667
#
# Disc length: 3865 seconds
#
# Revision: 2
# Processed by: cddbd v1.5.1PL0 Copyright (c) Steve Scherf et al.
# Submitted via: CDex 1.51
#
DISCID=590f1716
DTITLE=Various Artist - 22 Golden Country Dream
DYEAR=1992
DGENRE=Country
TTITLE0=Bobby Helms - Fraulein
TTITLE1=Johnny Tillotson - Send Me The Pillow You Dream On
TTITLE2=Stu Stevens - Love Me Tender
TTITLE3=Lyn Anderson - Rose Garden
TTITLE4=Freddy Fender - Wasted Day And Wasted Night
TTITLE5=Frankie Laine - Rose Rose I Love You
TTITLE6=The Everly Brothers - All I Have To Do Is Dream
TTITLE7=Ray Charles - Your Cheating Heart
TTITLE8=Frankie Laine - Sixteen Tons
TTITLE9=Willie Nelson - You'll Always Have Someone
TTITLE10=George Jones - Jambalaya
TTITLE11=Waylon Jennings - Sally Was A Good Old Girl
TTITLE12=George Jones - I Can't Change Overnight
TTITLE13=Kenny Rogers - For The Good Times
TTITLE14=Johnny Cash - You Win Again
TTITLE15=Don Fardon - Indian Reservation
TTITLE16=B.T. Jone - Take My Home Country Roads
TTITLE17=Kenny Rogers - Poem For My Little Lady
TTITLE18=Marty Robbins - El Paso
TTITLE19=Glenn Campbell - Rhinestone Cowboy
TTITLE20=Conway Twitty and Joni Lee - Don't Cry Joni
TTITLE21=Gogi Grant - The Wayward Wind
EXTD=YEAR: 1992
EXTT0=
EXTT1=
EXTT2=
EXTT3=
EXTT4=
EXTT5=
EXTT6=
EXTT7=
EXTT8=
EXTT9=
EXTT10=
EXTT11=
EXTT12=
EXTT13=
EXTT14=
EXTT15=
EXTT16=
EXTT17=
EXTT18=
EXTT19=
EXTT20=
EXTT21=
PLAYORDER=
